<?xml version="1.0" encoding="utf-8"?>
<!-- Generator: Adobe Illustrator 22.1.0, SVG Export Plug-In . SVG Version: 6.00 Build 0)  -->
<svg version="1.1" id="Layer_1" xmlns="http://www.w3.org/2000/svg" xmlns:xlink="http://www.w3.org/1999/xlink" x="0px" y="0px"
	 viewBox="0 0 244.5 192" style="enable-background:new 0 0 244.5 192;" xml:space="preserve">
<style type="text/css">
	.st0{fill:url(#SVGID_1_);}
</style>
<g id="eknKPu.tif">
	<g>
		<linearGradient id="SVGID_1_" gradientUnits="userSpaceOnUse" x1="122.4402" y1="191.4324" x2="122.4402" y2="0.4147">
			<stop  offset="3.806090e-04" style="stop-color:#C668FF"/>
			<stop  offset="1" style="stop-color:#36E2E1"/>
		</linearGradient>
		<path class="st0" d="M0.4,56.9c0-22,2.2-35.1,4.3-40.8C8.7,5,17.1-0.7,28.7,0.9C36.6,2,44.8,4.2,51.9,7.6
			C73.4,18,90.5,31,105.6,49.3c6.1,7.4,11.4,15.4,17.2,23.3c10.7-18.4,24.4-31.2,40.4-44.9C177,15.9,191.5,5.5,209.6,1.4
			c16.4-3.7,27.3,2.7,31.9,18.9c1.2,4.4,1.9,9,2.9,13.6c0,7.3,0,14.7,0,22c-0.7,4.1-1.3,8.1-2.1,12.2c-3.4,18.1-12.2,31.8-30.9,37.3
			c-3.1,0.9-6.3,1.4-10.5,2.3c2.6,2.3,4.7,4,6.5,5.9c7.8,8.2,12.4,18,11.4,29.3c-1.8,19.5-12,34-29,43.3
			c-13.8,7.6-27.8,6.7-41.2-1.6c-8.8-5.5-15.4-13.2-21-21.7c-1.7-2.6-3.3-5.1-4.7-7.2c-6.3,7.7-12,15.5-18.6,22.4
			c-6.8,7.1-15.3,11.6-25.3,12.8c-22.7,2.8-41.2-14.6-48.6-30.8c-8.4-18.5-5.2-35,9.5-49c1.1-1.1,3.8-1.9,2.7-3.8
			C20,103.5,8.1,92.5,2.9,70.5C1.8,66,1.2,61.4,0.4,56.9z"/>
	</g>
</g>
</svg>
